<svg xmlns="http://www.w3.org/2000/svg" xmlns:xlink="http://www.w3.org/1999/xlink" id="Layer_1" x="0px" y="0px" width="100%" viewBox="0 0 1024 1024" xml:space="preserve"><path fill="#ffffff" opacity="1.000000" stroke="none" d=" M597.922607,36.019432   C632.653076,41.810947 665.657104,52.090908 697.747742,65.307259   C732.093933,79.452568 763.860535,98.305321 794.420898,119.300926   C846.051514,154.772263 886.159729,201.180817 921.167114,252.457047   C935.868896,273.991119 948.318176,296.808014 958.311829,320.844604   C968.343994,344.973633 976.892517,369.664948 983.314819,395.053619   C988.539673,415.708649 993.287598,436.489807 995.032043,457.727814   C996.189026,471.812408 995.813843,486.028351 995.979492,500.187195   C996.127686,512.851685 995.917542,525.522034 996.195679,538.182556   C996.301575,543.004150 994.595886,544.561218 989.816650,544.500244   C971.820435,544.270691 953.819397,544.306946 935.820923,544.391602   C925.661255,544.439392 915.503601,544.825500 905.343750,544.963745   C899.114990,545.048462 897.794739,546.201355 897.362793,552.460632   C896.307678,567.749756 894.518250,582.925415 891.133972,597.908447   C886.030029,620.504578 879.112244,642.493286 870.854858,664.150452   C852.992126,710.999939 824.497925,750.748291 791.230835,787.725281   C766.931030,814.735107 738.057922,835.380127 707.146240,853.812500   C677.471741,871.507202 646.160828,885.186157 612.809814,894.055542   C589.648499,900.215088 566.213318,905.124023 542.170959,906.363098   C537.731873,906.591858 535.395020,908.793030 535.393311,913.261536   C535.388977,924.593018 535.266357,935.928101 535.520325,947.254456   C535.657410,953.367554 536.861877,953.972656 542.869385,952.563354   C544.642822,952.147339 546.469543,951.851624 548.286316,951.742981   C580.207886,949.834473 611.118103,942.884949 641.584351,933.463684   C694.831177,916.997864 741.773132,888.826172 786.096985,855.839172   C802.623047,843.540161 816.183472,828.028259 829.987305,812.899963   C850.122498,790.832825 868.621887,767.436523 883.732544,741.582520   C901.774841,710.712341 916.328552,678.276245 926.708557,643.992676   C931.191467,629.186401 935.173279,614.282532 937.872437,599.046936   C938.324219,596.496826 939.687744,595.504578 942.366272,595.524231   C957.863525,595.637939 973.363037,595.708557 988.859070,595.539307   C992.905945,595.495117 992.821777,597.648560 992.272522,600.328369   C989.802002,612.382019 987.636658,624.514526 984.674988,636.448303   C975.859070,671.972107 962.783386,705.935425 946.587280,738.741577   C935.195679,761.815979 921.733398,783.566284 906.516541,804.315613   C886.750610,831.268250 864.918396,856.429382 840.310059,878.961853   C804.237976,911.991028 764.337219,939.588684 719.841309,960.286377   C690.789185,973.800110 660.976929,985.150879 629.766418,992.615784   C617.476807,995.555176 605.242798,998.830933 592.831116,1001.132141   C573.650085,1004.688416 554.108154,1004.886475 534.699890,1006.290283   C520.421814,1007.322998 506.149994,1007.930481 491.814117,1007.486816   C481.759125,1007.175537 481.748383,1007.562012 481.759735,997.022949   C481.789032,969.857483 481.846527,942.691956 481.826965,915.526489   C481.821381,907.789368 481.739197,907.605713 474.015778,906.716553   C447.526978,903.667297 421.381927,899.057556 395.704895,891.639160   C361.155518,881.657410 329.639618,865.487366 298.924683,847.094360   C262.353302,825.194397 232.092941,796.541565 205.293823,763.836182   C176.178497,728.304138 153.903900,689.014709 139.390732,645.303833   C132.931580,625.850159 127.595436,606.137451 123.771729,586.052734   C121.661789,574.969910 120.847130,563.632629 119.632454,552.390137   C118.830933,544.971558 118.249725,544.262390 110.799706,544.271667   C100.633553,544.284302 90.467026,544.287659 80.301491,544.383118   C74.112801,544.441223 72.834198,545.700562 73.216301,551.756714   C74.865326,577.893250 79.223175,603.608826 86.241936,628.814087   C97.400681,668.886536 111.986511,707.638123 134.186096,743.024719   C160.910965,785.624756 192.621750,824.109070 231.796753,855.961853   C254.733704,874.611572 279.972534,889.868103 305.553162,904.620239   C324.871368,915.760864 345.215393,924.326416 366.470276,930.700195   C385.571594,936.428101 404.676727,942.287781 424.376862,945.723511   C428.614105,946.462402 430.384918,948.422791 430.348419,952.708191   C430.227722,966.872131 430.343536,981.037842 430.274872,995.202393   C430.244263,1001.517761 428.861481,1002.187317 422.760590,1000.681580   C411.138245,997.813110 399.425415,995.309143 387.740509,992.696899   C364.765533,987.560669 342.686523,979.621033 320.925171,970.845215   C278.590637,953.772644 240.423508,929.424377 203.985947,902.302124   C180.491577,884.814148 160.697449,863.427063 141.351395,841.511841   C121.101738,818.572937 102.745171,794.332214 86.713943,768.323181   C71.723557,744.002808 59.864491,718.209534 50.170498,691.309448   C42.938183,671.240234 36.341537,651.015747 31.497358,630.264771   C24.908070,602.038330 20.640320,573.461487 18.633610,544.497925   C17.593946,529.492188 17.944771,514.534607 17.922886,499.552917   C17.911188,491.545410 18.901560,490.746796 26.813194,490.749420   C55.311806,490.758820 83.811485,490.615936 112.308052,490.854828   C117.366714,490.897278 119.115723,488.976135 119.488007,484.373993   C121.341995,461.455353 124.880928,438.809692 130.957993,416.605652   C136.193771,397.475403 142.956390,378.882599 150.531403,360.555878   C162.129791,332.495087 177.808411,306.869598 196.108612,282.746338   C227.691711,241.113586 264.911652,205.903137 311.203308,180.857193   C329.366638,171.029984 347.195923,160.490372 366.629639,153.331604   C387.080627,145.798096 407.932709,139.644913 429.375000,135.278839   C445.095856,132.077744 460.939636,130.512543 476.804626,128.786713   C480.300720,128.406403 481.902985,126.802521 481.898102,123.368134   C481.881073,111.371033 481.862366,99.373871 481.890076,87.376823   C481.899750,83.180962 479.741516,81.857674 475.819733,82.263130   C439.350891,86.033516 403.393921,91.870728 368.494110,103.903908   C342.989929,112.697563 319.029480,124.382721 295.516357,137.338272   C271.384979,150.634491 248.415787,165.661087 227.045990,183.011002   C209.794296,197.017487 194.960800,213.537704 180.329758,230.196198   C163.039215,249.882706 147.047882,270.555664 133.714508,293.158539   C115.448280,324.123627 101.021782,356.793182 90.325134,391.143677   C85.813362,405.632446 82.786118,420.447235 79.565247,435.224701   C78.892548,438.311096 77.709213,439.421875 74.664146,439.422821   C59.667175,439.427460 44.670330,439.592407 29.673256,439.634949   C25.119131,439.647858 23.778088,438.120514 24.971901,433.201324   C28.813528,417.371613 31.773323,401.347809 36.196606,385.638947   C46.901211,347.622620 61.931801,311.395477 80.879684,276.818756   C95.577164,249.998337 113.609421,225.446259 133.237717,202.009003   C173.414581,154.035614 220.954315,115.064758 276.118256,85.630676   C309.096344,68.034409 343.428375,53.435192 379.870941,44.495804   C397.623291,40.141159 415.258209,34.519764 433.508148,33.167747   C455.078369,31.569756 476.568848,28.632748 498.253479,28.577850   C508.578308,28.551712 518.903381,28.366062 529.226868,28.174166   C533.701477,28.090988 535.513428,29.618113 535.469727,34.595322   C535.216370,63.425117 535.344421,92.258316 535.357849,121.090363   C535.361023,127.874863 535.812500,128.199585 542.730286,128.771652   C574.057556,131.362289 604.500732,137.920364 634.356750,147.885620   C676.877197,162.077988 714.935303,184.423248 751.065796,210.338165   C764.066956,219.663345 775.455688,230.992142 786.393250,242.715744   C804.942505,262.598053 822.437561,283.315796 837.468689,306.030243   C857.103516,335.701660 871.065369,367.966187 881.676208,401.822876   C887.406555,420.107178 891.986267,438.629395 894.724121,457.583344   C896.102783,467.127625 897.175903,476.721649 898.127808,486.318909   C898.468811,489.756744 899.950378,490.821289 903.243713,490.787567   C914.741760,490.669800 926.242004,490.802307 937.741089,490.752319   C943.834106,490.725861 944.755798,489.253784 944.321167,483.156921   C942.504761,457.680023 937.907776,432.667969 931.593689,407.982239   C927.181213,390.731049 921.185669,373.965607 915.012207,357.248657   C903.210449,325.290894 886.952332,295.761780 867.244629,268.114105   C832.228271,218.990204 790.370789,177.032776 737.999451,146.292053   C720.056702,135.760117 702.669128,124.194931 683.265381,116.337311   C656.502625,105.499649 628.790466,97.814384 600.697144,91.331100   C584.681335,87.635033 586.860474,90.433090 586.796814,74.797974   C586.749329,63.133514 586.875488,51.468330 586.823242,39.803921   C586.796814,33.913963 587.473389,33.297859 593.160095,34.784740   C594.611877,35.164322 596.068115,35.526489 597.922607,36.019432  M426.297852,190.954727   C422.293640,192.052429 418.310547,193.235352 414.281647,194.233398   C394.408325,199.156479 376.126434,207.936859 357.969421,217.111450   C334.276367,229.083389 311.493195,242.445740 290.947266,259.385010   C275.957062,271.743774 263.569061,286.557831 251.001526,301.246063   C227.971024,328.162781 209.124329,357.555878 196.268173,390.691071   C186.183624,416.682831 178.500473,443.314240 174.475708,470.920471   C172.142136,486.926514 171.590408,503.094208 171.461655,519.243774   C171.320831,536.907776 173.215439,554.356506 176.037872,571.862244   C180.764130,601.176025 189.496811,629.144958 201.050125,656.312317   C211.948380,681.939270 227.135788,705.024353 244.520325,726.671082   C261.766235,748.145325 279.981720,768.668884 302.445343,785.011658   C320.550171,798.183289 339.879639,809.261780 359.703278,819.568115   C376.148804,828.118103 393.096802,835.338013 410.939423,840.497925   C424.859619,844.523560 438.857758,848.991638 453.159576,850.345459   C479.758514,852.863464 506.313416,855.415405 533.322449,853.239868   C562.275146,850.907776 590.444214,846.009766 617.774841,836.646606   C653.515808,824.402100 686.085022,805.850525 716.410217,783.554993   C743.677429,763.507751 764.589722,737.202698 784.769897,710.423828   C805.853088,682.446655 819.957581,650.969177 830.519470,617.696594   C837.705872,595.057556 842.310791,571.899597 844.462585,548.383545   C847.015259,520.486633 846.300964,492.607086 841.759094,464.766144   C836.437866,432.148254 826.850464,400.954742 812.791687,371.192963   C795.891602,335.416321 771.448303,304.894501 744.565369,276.200012   C726.133728,256.526459 704.030151,241.804504 680.887756,228.357239   C646.779236,208.537872 610.973816,193.112061 571.808167,186.970901   C553.759583,184.140884 535.419434,183.181244 517.217651,181.313446   C505.163055,180.076447 493.311096,182.293869 481.379608,183.224350   C463.132019,184.647400 444.899292,186.138428 426.297852,190.954727  z"></path><path fill="#ffffff" opacity="1.000000" stroke="none" d=" M361.546021,667.432983   C376.110687,674.623413 391.714783,676.341431 407.026459,677.319336   C428.100952,678.665222 444.320374,669.313538 455.374298,650.763062   C466.451874,632.172791 471.173370,611.766602 474.691437,590.829834   C477.185913,575.984375 477.734406,561.047546 477.723633,546.047363   C477.693939,504.714355 477.715424,463.381317 477.710602,422.048309   C477.709686,414.170959 477.186584,414.081268 469.441376,414.550140   C453.302826,415.527161 437.127319,415.330444 420.988647,414.496246   C414.506226,414.161163 410.068939,415.261108 405.190948,420.812744   C390.605835,437.412140 363.635834,435.394073 351.325043,412.875397   C340.516052,393.103760 356.480804,370.404236 373.530243,367.459045   C386.249847,365.261841 397.266510,367.571442 405.720398,377.875488   C409.283966,382.218933 413.436584,383.975708 419.158020,383.863800   C436.484863,383.524872 453.822052,383.733490 471.155060,383.682922   C477.060364,383.665710 477.759491,382.677704 477.255707,376.902283   C476.559814,368.923706 476.620941,360.897003 477.323120,352.943848   C477.671112,349.002411 476.445862,346.628601 473.323242,344.640869   C467.845398,341.153839 462.444427,337.569122 457.317474,333.542999   C438.582062,318.830566 422.926422,278.962799 438.163116,247.768753   C446.271027,231.169449 456.924988,217.276108 473.629822,209.247025   C489.236481,201.745804 505.760162,199.773636 523.195801,202.745804   C549.196350,207.177948 566.333557,222.248886 577.635437,245.054657   C592.410461,274.868958 585.638916,302.011810 566.427917,327.112244   C560.731934,334.554413 552.473633,339.445282 544.496826,344.290497   C541.229736,346.274994 539.967102,348.557526 540.071838,352.367920   C540.305298,360.860107 540.229370,369.368652 539.993469,377.862579   C539.873230,382.190338 541.596741,383.853668 545.854675,383.824921   C564.520386,383.698792 583.187378,383.658447 601.853149,383.745087   C605.053772,383.759949 607.220337,382.474396 609.106689,380.158447   C614.295166,373.788239 620.910950,370.051849 628.801025,367.428436   C641.330688,363.262421 658.104309,371.488708 665.495605,384.001129   C677.204773,403.823181 661.209412,431.052094 637.089600,431.899078   C628.744629,432.192108 620.394043,428.960297 613.893860,422.841614   C611.715210,420.790924 609.758362,418.501526 607.737610,416.287048   C605.767883,414.128571 603.598145,413.239532 600.620300,414.291382   C598.943298,414.883698 597.018066,414.990417 595.210388,414.961395   C578.552002,414.693909 561.874451,415.575073 545.237366,414.320709   C540.927612,413.995789 539.453613,416.021637 539.452026,419.794800   C539.432434,466.281891 539.143372,512.771606 539.554871,559.255005   C539.773987,584.008179 543.963196,608.313110 552.586853,631.588013   C557.581177,645.067566 564.262207,657.720459 575.725586,667.209656   C586.003784,675.717651 598.275940,677.769592 610.823364,677.405884   C619.885315,677.143250 629.058350,675.489197 637.886475,673.277100   C677.116333,663.446960 702.025146,638.373962 714.138123,600.149414   C715.669983,595.315125 714.099060,593.252197 708.891663,593.187378   C700.561096,593.083618 692.227356,593.231873 683.894958,593.270508   C682.259155,593.278076 680.623413,593.271606 679.172241,593.271606   C677.975525,590.766174 679.544434,589.797180 680.728088,588.709045   C698.043640,572.790100 714.782471,556.318359 728.992981,537.486084   C738.455750,524.945679 746.495361,511.550842 752.396851,496.940918   C752.950012,495.571564 753.177368,494.020935 754.919495,493.306915   C757.623352,493.976929 758.585999,496.473206 759.734680,498.567749   C771.355774,519.756714 780.272827,542.017334 782.801819,566.172241   C784.645752,583.782654 783.641357,601.454773 778.282471,618.592407   C777.154480,622.199646 775.062134,622.778198 772.064148,619.802856   C768.618347,616.383179 764.932556,613.288696 761.103210,610.351318   C756.561401,606.867493 754.670410,607.793213 753.223633,613.252014   C744.661865,645.556152 728.957092,673.408386 703.614502,695.866577   C683.413452,713.768311 659.937927,726.215454 636.734802,739.304199   C611.507935,753.534363 585.066406,765.689575 561.375732,782.550171   C542.860718,795.727356 525.377380,810.099915 512.530212,829.257812   C509.817139,833.303589 507.620544,833.575684 504.988495,829.616821   C490.066620,807.172729 469.058899,791.467041 447.109039,776.710510   C428.110077,763.937866 407.317932,754.385986 387.529297,743.038818   C366.450500,730.951721 344.520691,720.299072 325.038635,705.522583   C293.993591,681.975952 273.874878,651.278809 264.281433,613.584595   C262.839386,607.918518 261.065369,607.225159 256.342529,610.402344   C253.016891,612.639587 249.867737,615.086243 247.297745,618.216675   C245.790695,620.052368 244.080505,621.883667 241.428314,621.250427   C239.062668,620.685608 239.020905,618.282166 238.483627,616.431396   C232.852280,597.032715 232.421631,577.333374 235.793350,557.572449   C239.503571,535.827698 247.832443,515.737610 258.872681,496.726593   C259.601257,495.472046 260.139526,493.794861 261.959076,493.812561   C263.811066,493.830536 264.347565,495.522339 264.894775,496.847260   C279.389618,531.940674 304.335510,559.006836 331.778137,584.186096   C334.486115,586.670776 337.652954,589.003662 338.502533,593.660095   C328.054810,590.952515 317.990509,593.730896 307.908325,593.180603   C302.020721,592.859314 301.311523,593.893188 303.009216,599.508545   C312.423920,630.648560 330.871765,654.076477 361.546021,667.432983  M545.266113,281.717865   C547.338806,262.415955 536.054382,246.695328 517.241821,241.670959   C495.205872,235.785690 470.494751,253.164520 471.567352,278.881439   C472.330444,297.177521 488.090759,312.997894 506.717865,313.541412   C525.674683,314.094543 541.668762,301.708923 545.266113,281.717865  z"></path></svg>